<svg width="256" height="46" viewBox="0 0 256 46" fill="none" xmlns="http://www.w3.org/2000/svg">
<path d="M35.0391 42.9492L20.3906 43.6523L20.2734 30.1172H13.5352L13.125 42.9492H0L1.11328 1.75781L15.0586 2.40234L14.1797 23.4375H20.6836L20.7422 0.820312L34.1016 1.17188L35.0391 42.9492ZM72.7441 1.69922C71.8652 8.57422 71.1133 15.4199 70.4883 22.2363C69.8633 29.0332 69.2676 35.8789 68.7012 42.7734L56.6895 43.6523L57.2168 39.1406C56.8262 39.5898 56.3672 39.9805 55.8398 40.3125C55.332 40.6445 54.7852 40.918 54.1992 41.1328C53.6133 41.3281 53.0078 41.4746 52.3828 41.5723C51.7578 41.6504 51.1621 41.6797 50.5957 41.6602C49.2676 41.6406 48.0176 41.3867 46.8457 40.8984C45.6738 40.3906 44.5996 39.7266 43.623 38.9062C42.6465 38.0664 41.7676 37.0996 40.9863 36.0059C40.2051 34.8926 39.541 33.7305 38.9941 32.5195C38.4668 31.2891 38.0566 30.0391 37.7637 28.7695C37.4902 27.5 37.3535 26.2695 37.3535 25.0781C37.3535 23.3203 37.3828 21.5039 37.4414 19.6289C37.5195 17.7344 37.6465 15.8398 37.8223 13.9453C37.998 12.0508 38.2227 10.1758 38.4961 8.32031C38.7891 6.46484 39.1504 4.6875 39.5801 2.98828C41.9629 3.10547 44.3555 3.21289 46.7578 3.31055C49.1602 3.4082 51.5527 3.4375 53.9355 3.39844C53.4863 5.09766 53.0371 6.80664 52.5879 8.52539C52.1582 10.2246 51.7676 11.9434 51.416 13.6816C51.0645 15.4004 50.7812 17.1289 50.5664 18.8672C50.3516 20.6055 50.2441 22.3633 50.2441 24.1406C50.2441 24.5508 50.2637 25.1367 50.3027 25.8984C50.3418 26.6602 50.4395 27.4121 50.5957 28.1543C50.7715 28.8965 51.0254 29.5508 51.3574 30.1172C51.709 30.6641 52.1973 30.9375 52.8223 30.9375C53.5645 30.9375 54.2285 30.625 54.8145 30C55.4004 29.3555 55.918 28.4961 56.3672 27.4219C56.8164 26.3477 57.1973 25.1074 57.5098 23.7012C57.8418 22.2949 58.1152 20.8301 58.3301 19.3066C58.5645 17.7637 58.75 16.2109 58.8867 14.6484C59.0234 13.0859 59.1211 11.6211 59.1797 10.2539C59.2578 8.86719 59.3066 7.62695 59.3262 6.5332C59.3652 5.43945 59.3848 4.58984 59.3848 3.98438C59.3848 3.59375 59.375 3.21289 59.3555 2.8418C59.3359 2.4707 59.3066 2.08984 59.2676 1.69922C60.5371 1.73828 61.7969 1.76758 63.0469 1.78711C64.2969 1.80664 65.5566 1.81641 66.8262 1.81641C67.8027 1.81641 68.7793 1.81641 69.7559 1.81641C70.752 1.79687 71.748 1.75781 72.7441 1.69922ZM110.859 28.125C110.859 30.332 110.83 32.5195 110.771 34.6875C110.732 36.8359 110.664 39.0039 110.566 41.1914L93.6914 40.8984C94.2773 37.4414 94.7852 33.9941 95.2148 30.5566C95.6445 27.0996 95.8594 23.6133 95.8594 20.0977C95.8594 19.8438 95.8496 19.4336 95.8301 18.8672C95.8105 18.3008 95.7715 17.666 95.7129 16.9629C95.6543 16.2402 95.5664 15.5078 95.4492 14.7656C95.3516 14.0039 95.2051 13.3105 95.0098 12.6855C94.834 12.0605 94.6094 11.5527 94.3359 11.1621C94.082 10.752 93.7695 10.5469 93.3984 10.5469C92.7344 10.5469 92.168 10.7422 91.6992 11.1328C91.25 11.5234 90.8691 12.0313 90.5566 12.6562C90.2637 13.2617 90.0293 13.9453 89.8535 14.707C89.6777 15.4688 89.541 16.2305 89.4434 16.9922C89.3652 17.7539 89.3066 18.4766 89.2676 19.1602C89.248 19.8242 89.2383 20.3711 89.2383 20.8008C89.1406 24.2578 89.0625 27.6953 89.0039 31.1133C88.9453 34.5117 88.8672 37.9492 88.7695 41.4258L73.8281 42.0703C74.2188 35.1758 74.5898 28.3203 74.9414 21.5039C75.3125 14.6875 75.6055 7.83203 75.8203 0.9375L89.6484 0.234375L89.5312 4.92188C90.0781 4.25781 90.6641 3.63281 91.2891 3.04688C91.9336 2.46094 92.6172 1.96289 93.3398 1.55273C94.0625 1.12305 94.8242 0.791016 95.625 0.556641C96.4453 0.302734 97.3047 0.175781 98.2031 0.175781C99.8633 0.175781 101.318 0.449219 102.568 0.996094C103.818 1.54297 104.893 2.28516 105.791 3.22266C106.689 4.16016 107.441 5.27344 108.047 6.5625C108.652 7.83203 109.141 9.18945 109.512 10.6348C109.883 12.0801 110.166 13.5938 110.361 15.1758C110.557 16.7383 110.684 18.2812 110.742 19.8047C110.82 21.3281 110.859 22.8027 110.859 24.2285C110.859 25.6543 110.859 26.9531 110.859 28.125ZM149.062 36.3867C148.145 37.5391 147.012 38.5449 145.664 39.4043C144.316 40.2637 142.871 40.9766 141.328 41.543C139.785 42.1094 138.203 42.5391 136.582 42.832C134.961 43.1055 133.418 43.2422 131.953 43.2422C129.121 43.2422 126.514 42.7637 124.131 41.8066C121.748 40.8496 119.688 39.5215 117.949 37.8223C116.23 36.1035 114.883 34.0625 113.906 31.6992C112.93 29.3359 112.441 26.7578 112.441 23.9648C112.441 21.8359 112.686 19.7656 113.174 17.7539C113.662 15.7422 114.355 13.8574 115.254 12.0996C116.172 10.3418 117.285 8.73047 118.594 7.26562C119.902 5.80078 121.387 4.54102 123.047 3.48633C124.707 2.43164 126.523 1.62109 128.496 1.05469C130.488 0.46875 132.598 0.175781 134.824 0.175781C135.664 0.175781 136.562 0.214844 137.52 0.292969C138.477 0.351562 139.424 0.46875 140.361 0.644531C141.318 0.800781 142.246 1.02539 143.145 1.31836C144.043 1.61133 144.863 1.97266 145.605 2.40234L144.785 13.5938C143.691 13.1836 142.559 12.9102 141.387 12.7734C140.234 12.6172 139.102 12.5391 137.988 12.5391C136.426 12.5391 134.961 12.7539 133.594 13.1836C132.246 13.5938 131.064 14.209 130.049 15.0293C129.053 15.8496 128.262 16.875 127.676 18.1055C127.09 19.3359 126.797 20.7617 126.797 22.3828C126.797 23.3984 126.934 24.3848 127.207 25.3418C127.48 26.2793 127.891 27.1191 128.438 27.8613C129.004 28.584 129.697 29.1699 130.518 29.6191C131.357 30.0684 132.324 30.293 133.418 30.293C134.16 30.293 134.922 30.1953 135.703 30C136.504 29.8047 137.188 29.4727 137.754 29.0039L137.871 26.7188L130.84 26.6016L131.191 17.8125C134.102 17.7148 137.012 17.6367 139.922 17.5781C142.832 17.5 145.762 17.4023 148.711 17.2852L149.062 36.3867ZM185.654 14.707C185.654 16.2305 185.518 17.6172 185.244 18.8672C184.99 20.0977 184.58 21.2305 184.014 22.2656C183.447 23.3008 182.715 24.2578 181.816 25.1367C180.918 26.0156 179.834 26.8555 178.564 27.6562L185.537 40.0781L172.354 42.6562L167.842 30.1758L164.209 30.293L163.682 42.4805H151.084C151.182 38.0273 151.27 33.5938 151.348 29.1797C151.445 24.7656 151.553 20.332 151.67 15.8789C151.709 13.6328 151.748 11.4062 151.787 9.19922C151.826 6.99219 151.904 4.76563 152.021 2.51953C153.389 2.01172 154.736 1.5918 156.064 1.25977C157.393 0.927734 158.721 0.673828 160.049 0.498047C161.396 0.302734 162.754 0.175781 164.121 0.117188C165.508 0.0390625 166.924 0 168.369 0C170.596 0 172.744 0.3125 174.814 0.9375C176.904 1.54297 178.75 2.46094 180.352 3.69141C181.953 4.92188 183.232 6.45508 184.189 8.29102C185.166 10.127 185.654 12.2656 185.654 14.707ZM172.529 15.6445C172.529 14.8242 172.412 14.0723 172.178 13.3887C171.963 12.7051 171.631 12.1191 171.182 11.6309C170.752 11.123 170.205 10.7324 169.541 10.459C168.896 10.166 168.135 10.0195 167.256 10.0195C166.865 10.0195 166.484 10.0488 166.113 10.1074C165.742 10.1465 165.381 10.2148 165.029 10.3125L164.561 21.2109H165.264C166.104 21.2109 166.953 21.1035 167.812 20.8887C168.691 20.6738 169.473 20.3418 170.156 19.8926C170.859 19.4434 171.426 18.8672 171.855 18.1641C172.305 17.4609 172.529 16.6211 172.529 15.6445ZM223.184 3.28125L209.414 25.7812L209.824 42.3633H194.766L195.117 25.8984L184.395 4.16016L199.336 2.28516L204.023 14.9414L209.121 2.28516L223.184 3.28125ZM242.021 31.5234H232.119C231.982 29.4531 232.1 27.7246 232.471 26.3379C232.842 24.9316 233.34 23.7695 233.965 22.8516C234.609 21.9141 235.322 21.1621 236.104 20.5957C236.904 20.0098 237.676 19.5117 238.418 19.1016C239.18 18.6719 239.844 18.2617 240.41 17.8711C240.996 17.4805 241.396 16.9922 241.611 16.4062C241.748 16.0547 241.787 15.6543 241.729 15.2051C241.67 14.7363 241.465 14.2969 241.113 13.8867C240.781 13.4766 240.273 13.1348 239.59 12.8613C238.926 12.5684 238.057 12.4219 236.982 12.4219C236.279 12.4219 235.439 12.4902 234.463 12.627C233.506 12.7441 232.5 12.9395 231.445 13.2129C230.391 13.4668 229.346 13.7891 228.311 14.1797C227.295 14.5508 226.377 14.9805 225.557 15.4688L224.268 3.98438C224.99 3.55469 225.801 3.11523 226.699 2.66602C227.617 2.19727 228.623 1.78711 229.717 1.43555C230.811 1.06445 232.002 0.761719 233.291 0.527344C234.58 0.292969 235.967 0.175781 237.451 0.175781C239.854 0.175781 242.119 0.507812 244.248 1.17188C246.396 1.83594 248.271 2.8125 249.873 4.10156C251.475 5.39062 252.744 6.98242 253.682 8.87695C254.619 10.752 255.088 12.9102 255.088 15.3516C255.088 17.207 254.824 18.7012 254.297 19.834C253.77 20.9473 253.096 21.8652 252.275 22.5879C251.455 23.3105 250.537 23.916 249.521 24.4043C248.506 24.8926 247.51 25.4297 246.533 26.0156C245.576 26.582 244.688 27.2852 243.867 28.125C243.066 28.9648 242.451 30.0977 242.021 31.5234ZM243.486 39.2578C243.486 40.1172 243.32 40.918 242.988 41.6602C242.656 42.4023 242.207 43.0469 241.641 43.5938C241.094 44.1602 240.449 44.5996 239.707 44.9121C238.965 45.2441 238.174 45.4102 237.334 45.4102C236.475 45.4102 235.674 45.2441 234.932 44.9121C234.189 44.5996 233.535 44.1602 232.969 43.5938C232.422 43.0469 231.982 42.4023 231.65 41.6602C231.338 40.918 231.182 40.1172 231.182 39.2578C231.182 38.418 231.338 37.6172 231.65 36.8555C231.982 36.0938 232.422 35.4395 232.969 34.8926C233.535 34.3262 234.189 33.877 234.932 33.5449C235.674 33.2129 236.475 33.0469 237.334 33.0469C238.174 33.0469 238.965 33.2129 239.707 33.5449C240.449 33.877 241.094 34.3262 241.641 34.8926C242.207 35.4395 242.656 36.0938 242.988 36.8555C243.32 37.6172 243.486 38.418 243.486 39.2578Z" fill="white"/>
</svg>
